<svg width="82" height="82" viewBox="0 0 82 82" fill="none" xmlns="http://www.w3.org/2000/svg">
<path d="M69.9871 68.3334C69.3392 68.3328 68.7048 68.148 68.1579 67.8006C67.611 67.4531 67.1741 66.9573 66.8983 66.371C66.6226 65.7847 66.5192 65.132 66.6003 64.4892C66.6813 63.8463 66.9435 63.2398 67.3563 62.7403C72.3726 56.6055 75.1131 48.9247 75.1131 41.0001C75.1131 33.0754 72.3726 25.3946 67.3563 19.2598C67.0705 18.9136 66.8556 18.5146 66.7241 18.0854C66.5925 17.6562 66.5467 17.2053 66.5894 16.7584C66.632 16.3116 66.7623 15.8775 66.9728 15.481C67.1832 15.0844 67.4697 14.7332 67.8158 14.4474C68.5149 13.8702 69.4147 13.5943 70.3172 13.6805C71.2197 13.7667 72.051 14.2079 72.6282 14.907C78.6469 22.271 81.9347 31.4893 81.9347 41.0001C81.9347 50.5108 78.6469 59.7291 72.6282 67.0931C72.3068 67.482 71.9034 67.7949 71.4467 68.0094C70.9901 68.2238 70.4916 68.3345 69.9871 68.3334ZM14.1827 67.551C14.5289 67.2654 14.8155 66.9145 15.0261 66.5182C15.2366 66.1218 15.3671 65.6879 15.4099 65.2412C15.4527 64.7945 15.4071 64.3437 15.2757 63.9146C15.1443 63.4855 14.9296 63.0864 14.6439 62.7403C9.62759 56.6055 6.88711 48.9247 6.88711 41.0001C6.88711 33.0754 9.62759 25.3946 14.6439 19.2598C14.9298 18.9139 15.1446 18.515 15.2763 18.0861C15.408 17.6571 15.4539 17.2064 15.4114 16.7597C15.3688 16.3129 15.2388 15.879 15.0285 15.4825C14.8183 15.0861 14.532 14.735 14.1861 14.4491C13.8402 14.1633 13.4413 13.9485 13.0124 13.8168C12.5834 13.6851 12.1327 13.6392 11.686 13.6817C11.2392 13.7242 10.8053 13.8543 10.4088 14.0646C10.0124 14.2748 9.66126 14.561 9.37545 14.907C3.35495 22.2702 0.065918 31.4888 0.065918 41.0001C0.065918 50.5113 3.35495 59.7299 9.37545 67.0931C9.95253 67.7909 10.783 68.231 11.6843 68.3168C12.5857 68.4027 13.4843 68.1272 14.1827 67.551ZM68.3334 41.0001C68.3253 48.2468 65.4429 55.1944 60.3187 60.3187C55.1945 65.4429 48.2469 68.3253 41.0001 68.3334C4.82444 67.0487 4.83469 14.9446 41.0001 13.6667C48.2469 13.6749 55.1945 16.5572 60.3187 21.6815C65.4429 26.8057 68.3253 33.7533 68.3334 41.0001ZM44.4168 54.6667C44.4168 53.7606 44.0568 52.8915 43.4161 52.2508C42.7753 51.61 41.9063 51.2501 41.0001 51.2501C40.094 51.2501 39.2249 51.61 38.5842 52.2508C37.9434 52.8915 37.5834 53.7606 37.5834 54.6667C37.5834 55.5729 37.9434 56.4419 38.5842 57.0827C39.2249 57.7234 40.094 58.0834 41.0001 58.0834C41.9063 58.0834 42.7753 57.7234 43.4161 57.0827C44.0568 56.4419 44.4168 55.5729 44.4168 54.6667ZM44.4168 27.3334C44.4168 26.4272 44.0568 25.5582 43.4161 24.9174C42.7753 24.2767 41.9063 23.9167 41.0001 23.9167C40.094 23.9167 39.2249 24.2767 38.5842 24.9174C37.9434 25.5582 37.5834 26.4272 37.5834 27.3334V41.0001C37.5834 41.9062 37.9434 42.7753 38.5842 43.416C39.2249 44.0568 40.094 44.4167 41.0001 44.4167C41.9063 44.4167 42.7753 44.0568 43.4161 43.416C44.0568 42.7753 44.4168 41.9062 44.4168 41.0001V27.3334Z" fill="#FF914D"/>
</svg>
