<svg width="82" height="82" viewBox="0 0 82 82" fill="none" xmlns="http://www.w3.org/2000/svg">
<g clip-path="url(#clip0_2042_181)">
<path d="M41 13.6667C47.3892 13.6667 53.3923 16.154 57.9091 20.6708C59.245 22.0068 59.245 24.1695 57.9091 25.502C57.2428 26.1683 56.3682 26.5031 55.4935 26.5031C54.6188 26.5031 53.7442 26.1683 53.0779 25.502C49.8526 22.2767 45.5613 20.5 41 20.5C36.4388 20.5 32.1474 22.2767 28.9221 25.502C27.5862 26.8379 25.4268 26.8379 24.0909 25.502C22.755 24.1695 22.755 22.0068 24.0909 20.6708C28.6078 16.154 34.6108 13.6667 41 13.6667ZM19.2563 15.8397C31.2488 3.85059 50.7546 3.85059 62.7471 15.8397C63.4133 16.5059 64.288 16.8408 65.1627 16.8408C66.0373 16.8408 66.912 16.5059 67.5782 15.8397C68.9142 14.5038 68.9142 12.3444 67.5782 11.0085C52.9207 -3.64558 29.0793 -3.64558 14.4252 11.0085C13.0893 12.3444 13.0893 14.5038 14.4252 15.8397C15.7611 17.1756 17.9204 17.1756 19.2563 15.8397ZM82 47.8333V68.3333C82 75.8705 75.8705 82 68.3333 82H13.6667C6.1295 82 0 75.8705 0 68.3333V47.8333C0 40.2962 6.1295 34.1667 13.6667 34.1667H68.3333C75.8705 34.1667 82 40.2962 82 47.8333ZM20.5 68.3333C20.5 66.4473 18.9727 64.9167 17.0833 64.9167V47.8333C17.0833 45.9473 15.5561 44.4167 13.6667 44.4167C11.7773 44.4167 10.25 45.9473 10.25 47.8333V68.3333C10.25 70.2193 11.7773 71.75 13.6667 71.75H17.0833C18.9727 71.75 20.5 70.2193 20.5 68.3333ZM30.75 47.8333C30.75 45.9473 29.2227 44.4167 27.3333 44.4167C25.4439 44.4167 23.9167 45.9473 23.9167 47.8333V68.3333C23.9167 70.2193 25.4439 71.75 27.3333 71.75C29.2227 71.75 30.75 70.2193 30.75 68.3333V47.8333ZM52.3297 44.5909C50.5223 43.9896 48.6021 44.9599 48.0076 46.7503L44.4132 57.5264L40.8189 46.7503C40.221 44.9599 38.3008 43.9896 36.4968 44.5909C34.7099 45.1888 33.7396 47.1227 34.3375 48.913L41.1708 69.413C41.6355 70.807 42.9407 71.75 44.4098 71.75C45.879 71.75 47.1842 70.8104 47.6488 69.413L54.4822 48.913C55.0801 47.1227 54.1132 45.1888 52.3228 44.5909H52.3297ZM64.9167 54.6667V51.25H68.3333C70.2227 51.25 71.75 49.7193 71.75 47.8333C71.75 45.9473 70.2227 44.4167 68.3333 44.4167H63.2083C60.3828 44.4167 58.0833 46.7161 58.0833 49.5417V66.625C58.0833 69.4506 60.3828 71.75 63.2083 71.75H68.3333C70.2227 71.75 71.75 70.2193 71.75 68.3333C71.75 66.4473 70.2227 64.9167 68.3333 64.9167H64.9167V61.5H68.3333C70.2227 61.5 71.75 59.9693 71.75 58.0833C71.75 56.1973 70.2227 54.6667 68.3333 54.6667H64.9167Z" fill="#FF914D"/>
</g>
<defs>
<clipPath id="clip0_2042_181">
<rect width="82" height="82" fill="white"/>
</clipPath>
</defs>
</svg>
