<svg width="82" height="82" viewBox="0 0 82 82" fill="none" xmlns="http://www.w3.org/2000/svg">
<g clip-path="url(#clip0_2042_179)">
<path d="M50.6453 40.0023C50.8236 40.0999 50.9717 40.2445 51.0736 40.4204C51.1754 40.5963 51.2269 40.7968 51.2227 41C51.233 41.1734 51.2011 41.3466 51.1297 41.5049C51.0582 41.6632 50.9495 41.8018 50.8127 41.9088L32.4583 51.0928C32.2835 51.1894 32.0866 51.2389 31.8869 51.2364C31.6872 51.2339 31.4916 51.1795 31.3193 51.0785C31.1469 50.9775 31.0039 50.8335 30.9041 50.6604C30.8042 50.4875 30.7512 50.2915 30.75 50.0918V31.9083C30.7461 31.7055 30.7975 31.5056 30.8986 31.3298C30.9998 31.1541 31.1468 31.0091 31.324 30.9106C31.4871 30.8165 31.6721 30.767 31.8604 30.7671C32.1359 30.7752 32.4045 30.8553 32.6394 30.9994L50.6453 40.0023ZM82 17.0833V64.9167C81.9946 69.4458 80.193 73.7878 76.9904 76.9904C73.7878 80.193 69.4458 81.9946 64.9167 82H17.0833C12.5542 81.9946 8.21216 80.193 5.00958 76.9904C1.80701 73.7878 0.00542518 69.4458 0 64.9167L0 17.0833C0.00542518 12.5542 1.80701 8.21216 5.00958 5.00958C8.21216 1.80701 12.5542 0.00542518 17.0833 0L64.9167 0C69.4458 0.00542518 73.7878 1.80701 76.9904 5.00958C80.193 8.21216 81.9946 12.5542 82 17.0833ZM58.056 41C58.0572 39.5604 57.6684 38.1474 56.9308 36.9111C56.1933 35.6749 55.1345 34.6615 53.8672 33.9787L35.834 24.9758C34.6194 24.279 33.2428 23.9138 31.8425 23.9169C30.4422 23.9201 29.0673 24.2914 27.8558 24.9937C26.6443 25.696 25.6388 26.7046 24.9402 27.9183C24.2416 29.1319 23.8745 30.5079 23.8757 31.9083V50.0918C23.8675 51.4918 24.2314 52.869 24.9302 54.0822C25.6289 55.2955 26.6375 56.3013 27.8527 56.9968C29.0827 57.715 30.4805 58.0956 31.9048 58.1004C33.2225 58.1064 34.5186 57.7659 35.6632 57.113L54.0312 47.9324C55.2593 47.2408 56.2801 46.2333 56.9878 45.0144C57.6955 43.7955 58.0643 42.4095 58.056 41Z" fill="#FF914D"/>
</g>
<defs>
<clipPath id="clip0_2042_179">
<rect width="82" height="82" fill="white"/>
</clipPath>
</defs>
</svg>
