<svg width="82" height="82" viewBox="0 0 82 82" fill="none" xmlns="http://www.w3.org/2000/svg">
<path d="M0 75.1667V34.1667C0 26.6192 6.11925 20.5 13.6667 20.5V75.1667C13.6667 78.9421 10.6088 82 6.83333 82C3.05792 82 0 78.9421 0 75.1667ZM82 17.0833V64.9167C82 74.3501 74.3501 82 64.9167 82H18.6003C19.7791 79.9808 20.5 77.6677 20.5 75.1667V17.0833C20.5 7.64992 28.1499 0 37.5833 0H64.9167C74.3501 0 82 7.64992 82 17.0833ZM34.1667 27.3333H41C42.886 27.3333 44.4167 25.8027 44.4167 23.9167V17.0833C44.4167 15.1973 42.886 13.6667 41 13.6667H34.1667C32.2807 13.6667 30.75 15.1973 30.75 17.0833V23.9167C30.75 25.8027 32.2807 27.3333 34.1667 27.3333ZM68.3333 61.5H34.1667C32.2807 61.5 30.75 63.0307 30.75 64.9167C30.75 66.8027 32.2807 68.3333 34.1667 68.3333H68.3333C70.2193 68.3333 71.75 66.8027 71.75 64.9167C71.75 63.0307 70.2193 61.5 68.3333 61.5ZM68.3333 47.8333H34.1667C32.2807 47.8333 30.75 49.364 30.75 51.25C30.75 53.136 32.2807 54.6667 34.1667 54.6667H68.3333C70.2193 54.6667 71.75 53.136 71.75 51.25C71.75 49.364 70.2193 47.8333 68.3333 47.8333ZM68.3333 34.1667H34.1667C32.2807 34.1667 30.75 35.6973 30.75 37.5833C30.75 39.4693 32.2807 41 34.1667 41H68.3333C70.2193 41 71.75 39.4693 71.75 37.5833C71.75 35.6973 70.2193 34.1667 68.3333 34.1667ZM68.3333 20.5H54.6667C52.7807 20.5 51.25 22.0307 51.25 23.9167C51.25 25.8027 52.7807 27.3333 54.6667 27.3333H68.3333C70.2193 27.3333 71.75 25.8027 71.75 23.9167C71.75 22.0307 70.2193 20.5 68.3333 20.5Z" fill="#FF914D"/>
</svg>
